/* XPM */
static char *_1[] = {
/* columns rows colors chars-per-pixel */
"15 16 2 1 ",
". c black",
"  c white",
/* pixels */
"        .......",
"        .......",
"        .......",
"        .......",
"        .......",
"        ...... ",
"        ....   ",
"        ..     ",
"               ",
"               ",
"               ",
"               ",
"               ",
"               ",
"               ",
"               "
};
