/* XPM */
static char *_2[] = {
/* columns rows colors chars-per-pixel */
"15 16 2 1 ",
"  c black",
". c white",
/* pixels */
"            ...",
"            ...",
"            ...",
"            ...",
"            ...",
"            ...",
"            ...",
"            ...",
"            ...",
"            ...",
"            ...",
"            ...",
"            ...",
"            ...",
"            ...",
"            ..."
};
